<?xml version="1.0" encoding="UTF-8" standalone="no"?>
<svg
   xmlns:dc="http://purl.org/dc/elements/1.1/"
   xmlns:cc="http://creativecommons.org/ns#"
   xmlns:rdf="http://www.w3.org/1999/02/22-rdf-syntax-ns#"
   xmlns:svg="http://www.w3.org/2000/svg"
   xmlns="http://www.w3.org/2000/svg"
   xmlns:sodipodi="http://sodipodi.sourceforge.net/DTD/sodipodi-0.dtd"
   xmlns:inkscape="http://www.inkscape.org/namespaces/inkscape"
   width="210mm"
   height="297mm"
   viewBox="0 0 210 297"
   version="1.1"
   id="svg8"
   inkscape:version="1.0rc1 (09960d6, 2020-04-09)"
   sodipodi:docname="PAXMDB.svg">
  <defs
     id="defs2" />
  <sodipodi:namedview
     id="base"
     pagecolor="#ffffff"
     bordercolor="#666666"
     borderopacity="1.0"
     inkscape:pageopacity="0.0"
     inkscape:pageshadow="2"
     inkscape:zoom="1.01"
     inkscape:cx="287.10042"
     inkscape:cy="931.57001"
     inkscape:document-units="mm"
     inkscape:current-layer="layer1"
     inkscape:document-rotation="0"
     showgrid="false"
     inkscape:window-width="758"
     inkscape:window-height="766"
     inkscape:window-x="608"
     inkscape:window-y="23"
     inkscape:window-maximized="0" />
  <metadata
     id="metadata5">
    <rdf:RDF>
      <cc:Work
         rdf:about="">
        <dc:format>image/svg+xml</dc:format>
        <dc:type
           rdf:resource="http://purl.org/dc/dcmitype/StillImage" />
        <dc:title></dc:title>
      </cc:Work>
    </rdf:RDF>
  </metadata>
  <g
     inkscape:label="Layer 1"
     inkscape:groupmode="layer"
     id="layer1">
    <g
       id="g128"
       transform="matrix(0.3331599,0,0,0.3331599,248.12066,86.407197)">
      <path
         style="fill:#cfab35;stroke-width:0.352778"
         d="m -447.44822,483.26507 c -8.71032,-0.42517 -16.22904,-1.06959 -16.83278,-1.44272 -0.15232,-0.0941 -0.27694,-22.70428 -0.27694,-50.24476 0,-40.31227 0.0876,-50.07363 0.44919,-50.07363 0.24705,0 8.36141,2.46062 18.03191,5.46805 9.67049,3.00743 17.864,5.46806 18.20779,5.46806 0.34378,0 8.53729,-2.46063 18.20777,-5.46806 9.67052,-3.00743 17.86425,-5.46805 18.20831,-5.46805 0.59598,0 0.62558,2.37042 0.62558,50.10552 0,39.76835 -0.091,50.13677 -0.44097,50.25714 -1.11915,0.38481 -8.4038,0.95723 -18.07986,1.42067 -12.54591,0.60092 -25.48786,0.59338 -38.1,-0.0222 z m -28.22222,-34.09915 c -11.38768,-1.91936 -22.68238,-4.31542 -31.39722,-6.66062 -47.14686,-12.68737 -89.14598,-35.36823 -125.94167,-68.01245 -5.8973,-5.23194 -18.97776,-18.31241 -24.20971,-24.20972 -46.75289,-52.69858 -73.62163,-117.35964 -77.91283,-187.50139 -0.45869,-7.49743 -0.45869,-27.78034 0,-35.27777 4.2912,-70.141762 31.15994,-134.8027975 77.91283,-187.501386 8.67104,-9.773754 22.39173,-22.961715 33.38194,-32.085797 40.07808,-33.272897 90.22407,-56.550657 141.28749,-65.585637 8.22303,-1.45495 8.64266,-1.51805 9.0945,-1.36743 0.62799,0.20933 0.61792,17.84065 -0.0105,18.34132 -0.24253,0.19324 -1.79035,0.54106 -3.43958,0.77294 -4.76322,0.6697 -17.99856,3.36309 -24.23551,4.93193 -43.42836,10.92392 -82.09161,30.90621 -116.75036,60.339972 -7.19687,6.111903 -23.65909,22.574126 -29.77099,29.770997 -21.23832,25.008469 -37.26753,51.5988529 -48.91243,81.139345 -10.69357,27.127181 -16.7156,53.652947 -19.23301,84.717356 -0.62124,7.66602 -0.62124,40.66451 0,48.33055 2.51741,31.06441 8.53944,57.59016 19.23301,84.71736 11.6449,29.54048 27.67411,56.13086 48.91243,81.13934 6.1119,7.19688 22.57412,23.65908 29.77099,29.77099 28.49744,24.2013 59.63874,41.97174 94.01574,53.649 14.72584,5.0021 34.26002,9.8359 46.97013,11.6229 1.64923,0.23188 3.19705,0.57972 3.43958,0.77297 0.33188,0.2644 0.44097,2.55686 0.44097,9.26623 0,6.81634 -0.1038,8.95036 -0.44097,9.06558 -0.24253,0.0829 -1.23472,0.0169 -2.20486,-0.14658 z m 93.74473,-9.13976 0.0941,-9.3097 2.82223,-0.44853 c 47.29709,-7.5166 92.60963,-27.14949 130.22614,-56.42405 9.60999,-7.47885 16.37475,-13.50348 26.24321,-23.37195 9.86847,-9.86846 15.8931,-16.63322 23.37195,-26.24321 19.24523,-24.72926 34.61484,-53.26923 44.74094,-83.07962 6.58724,-19.3924 11.1028,-39.65564 13.33651,-59.84652 1.42219,-12.85519 1.61735,-17.21863 1.61735,-36.15973 0,-21.84368 -0.66157,-31.8411 -3.17871,-48.035489 -8.16952,-52.559548 -30.33934,-100.6735457 -65.42415,-141.986482 -6.11191,-7.196871 -22.57411,-23.659094 -29.77099,-29.770997 -25.00848,-21.238311 -51.59886,-37.267532 -81.13934,-48.912432 -19.06637,-7.51599 -39.95681,-13.23071 -60.02291,-16.41968 l -2.82223,-0.44852 -0.0941,-9.30968 -0.0942,-9.30969 1.90306,0.22366 c 5.82306,0.68439 22.31256,4.1488 31.44636,6.60682 47.14833,12.6882 89.14592,35.36824 125.94167,68.012508 5.89731,5.231948 18.97778,18.312408 24.20972,24.209716 46.7529,52.6985885 73.62162,117.359624 77.91284,187.501386 0.45868,7.49743 0.45868,27.78034 0,35.27777 -4.29122,70.14175 -31.15994,134.80281 -77.91284,187.50139 -5.23194,5.89731 -18.31241,18.97778 -24.20972,24.20972 -36.79575,32.64426 -78.79334,55.32431 -125.94167,68.01249 -9.1338,2.45805 -25.6233,5.92243 -31.44636,6.60682 l -1.90306,0.22366 z m -99.38918,-20.76366 c -47.84078,-10.212 -89.88501,-30.93406 -127.40392,-62.79275 -7.20036,-6.11406 -24.36307,-23.27677 -30.47716,-30.47714 -21.24305,-25.01723 -37.26719,-51.59953 -48.91182,-81.13934 -12.70675,-32.23415 -19.64071,-67.43594 -19.64071,-99.71042 0,-32.27445 6.93396,-67.476253 19.64071,-99.710404 11.64463,-29.539808 27.66877,-56.122103 48.91182,-81.139345 6.11409,-7.200364 23.2768,-24.363069 30.47716,-30.477159 31.62577,-26.85459 67.13273,-46.120002 105.70809,-57.355252 10.71021,-3.11939 28.36116,-7.13019 29.48354,-6.69949 0.42138,0.1617 0.51191,4.16811 0.58847,26.04402 l 0.0905,25.85292 1.54654,-0.09991 c 0.85059,-0.05495 2.43809,-0.418874 3.52777,-0.808722 1.08969,-0.389848 4.12437,-1.254051 6.74375,-1.920452 2.61937,-0.6664 5.31812,-1.44878 5.99722,-1.738619 0.67909,-0.289839 2.98097,-0.944732 5.11527,-1.455314 2.13431,-0.510582 4.43305,-1.157386 5.1083,-1.437344 0.67526,-0.279954 3.44059,-1.066271 6.14517,-1.747364 2.70459,-0.681098 5.23618,-1.408945 5.62575,-1.617441 0.38958,-0.208495 1.67238,-0.606919 2.85066,-0.885391 1.75894,-0.415695 2.52116,-0.429531 4.25901,-0.07732 1.16417,0.235945 2.52897,0.634704 3.03289,0.886139 0.50393,0.251432 2.88517,0.952024 5.29167,1.556872 2.40649,0.604845 5.72482,1.545149 7.37405,2.089563 1.64924,0.54441 4.26861,1.266835 5.82084,1.605382 1.55222,0.33855 3.21909,0.817817 3.70416,1.065036 0.48507,0.24722 2.9457,0.948535 5.46806,1.558481 2.52236,0.609945 5.0957,1.336382 5.71856,1.6143 0.62283,0.277922 2.43798,0.830238 4.03359,1.22737 2.28896,0.569687 2.96079,0.628139 3.18368,0.277005 0.1554,-0.244778 0.28497,-11.984743 0.28794,-26.088811 0.004,-15.05592 0.13822,-25.72584 0.32706,-25.84257 0.40721,-0.25167 10.83105,1.88304 18.09302,3.70528 43.14479,10.82635 81.96533,30.904191 116.57396,60.29163 7.20037,6.11409 24.36308,23.276795 30.47714,30.477159 21.24308,25.017242 37.2672,51.599537 48.91183,81.139345 12.70674,32.234151 19.64073,67.435956 19.64073,99.710406 0,32.27448 -6.93399,67.47627 -19.64073,99.71042 -11.64463,29.53981 -27.66875,56.12211 -48.91183,81.13934 -6.11406,7.20037 -23.27677,24.36308 -30.47714,30.47714 -34.60863,29.38745 -73.42917,49.4653 -116.57396,60.29166 -7.26197,1.82224 -17.68581,3.95694 -18.09302,3.70526 -0.18884,-0.11673 -0.32389,-10.78663 -0.32706,-25.84255 -0.004,-14.10409 -0.13254,-25.84404 -0.28794,-26.08884 -0.22289,-0.35112 -0.89472,-0.29266 -3.18368,0.27704 -1.59561,0.39712 -3.41076,0.94943 -4.03359,1.22735 -0.62286,0.27792 -3.1962,1.00436 -5.71856,1.61431 -2.52236,0.60995 -4.98299,1.31124 -5.46806,1.55847 -0.48507,0.24722 -2.15194,0.72647 -3.70416,1.06503 -1.55223,0.33856 -4.1716,1.06098 -5.82084,1.60539 -1.64923,0.5444 -4.96756,1.48473 -7.37405,2.08957 -2.4065,0.60484 -4.78774,1.30542 -5.29167,1.55688 -0.50392,0.25142 -1.86872,0.65017 -3.03289,0.88611 -1.73785,0.35221 -2.50007,0.33838 -4.25901,-0.0773 -1.17828,-0.27848 -2.46108,-0.67691 -2.85066,-0.8854 -0.38957,-0.20849 -2.92116,-0.93634 -5.62575,-1.61745 -2.70458,-0.68107 -5.46991,-1.46741 -6.14517,-1.74734 -0.67525,-0.27997 -2.97399,-0.92679 -5.1083,-1.43736 -2.1343,-0.51058 -4.43618,-1.16547 -5.11527,-1.45531 -0.6791,-0.28985 -3.37785,-1.0722 -5.99722,-1.73863 -2.61938,-0.6664 -5.65406,-1.5306 -6.74375,-1.92046 -1.08968,-0.38982 -2.67718,-0.75374 -3.52777,-0.8087 l -1.54654,-0.0999 -0.17639,25.92917 -0.17639,25.92916 -0.88194,0.066 c -0.48507,0.0363 -3.73945,-0.54391 -7.23195,-1.28944 z m 16.75695,-560.55437 c 0,-27.54049 0.12304,-50.14967 0.27342,-50.24261 1.18937,-0.73507 24.04477,-1.97403 36.41547,-1.97403 11.91794,0 34.44515,1.18641 36.60069,1.9276 0.34999,0.12035 0.44097,10.48879 0.44097,50.25715 0,47.735082 -0.0296,50.105512 -0.62558,50.105512 -0.34406,0 -8.53779,-2.460625 -18.20831,-5.468055 -9.67048,-3.007431 -17.86399,-5.468057 -18.20777,-5.468057 -0.34379,0 -8.5373,2.460626 -18.20779,5.468057 -9.6705,3.00743 -17.78486,5.468055 -18.03191,5.468055 -0.36163,0 -0.44919,-9.761352 -0.44919,-50.073622 z"
         id="path132"
         inkscape:connector-curvature="0" />
      <path
         style="fill:#23272f;stroke-width:0.352778"
         d="m -437.39405,483.60038 c -10.89614,-0.3756 -26.48749,-1.74163 -26.87699,-2.35482 -0.40129,-0.63176 -0.35964,-76.01596 0.0424,-76.76723 0.2815,-0.52599 0.62725,-0.57817 2.38125,-0.35934 1.12856,0.14079 3.04046,0.26938 4.24866,0.28575 2.57767,0.0349 2.50416,-0.0447 4.51599,4.89158 0.73396,1.80086 1.50823,3.21821 1.7206,3.14967 0.21237,-0.0686 1.02112,-1.70229 1.79723,-3.63054 0.77611,-1.92821 1.53077,-3.68854 1.67701,-3.91185 0.14625,-0.22327 1.65437,-0.50571 3.35139,-0.62759 4.44977,-0.31962 5.43973,-0.51516 5.31235,-1.04944 -0.0606,-0.25418 -1.49925,-1.60398 -3.197,-2.99953 -1.69774,-1.39556 -3.0866,-2.72634 -3.08635,-2.9573 2.6e-4,-0.23097 0.39713,-2.05726 0.88195,-4.05839 1.15944,-4.78572 1.15817,-4.81302 -0.19112,-4.1153 -0.58994,0.30509 -2.27718,1.34102 -3.74943,2.30212 -1.47225,0.96111 -2.81162,1.74745 -2.97637,1.74745 -0.16475,0 -1.88112,-0.96774 -3.81415,-2.15053 -1.93304,-1.18283 -3.66921,-2.05504 -3.85816,-1.93823 -0.20923,0.12929 0.0726,1.80823 0.72084,4.29387 l 1.06441,4.08157 -0.83019,0.88579 c -0.4566,0.48715 -1.91448,1.77359 -3.23974,2.85873 -1.92304,1.57459 -2.474,1.87117 -2.72863,1.46879 -0.17548,-0.27728 -0.32149,-4.99381 -0.32446,-10.4812 -0.004,-7.83509 0.0925,-10.01459 0.45056,-10.15199 0.25079,-0.0962 4.81485,1.18649 10.14236,2.85051 5.32752,1.66402 11.51202,3.58313 13.74334,4.2647 2.23132,0.68153 5.78973,1.78502 7.90757,2.45219 2.11784,0.66717 4.10222,1.21299 4.40972,1.21299 0.30751,-3e-5 3.57535,-0.93976 7.26188,-2.08827 5.07014,-1.57956 6.79702,-1.98772 7.0897,-1.67566 0.2128,0.22691 0.8285,2.14803 1.36815,4.26918 l 0.98125,3.8566 -1.54457,1.43507 c -0.84949,0.78927 -2.33828,2.098 -3.30842,2.90823 -1.20862,1.0094 -1.65082,1.58891 -1.4047,1.84086 0.19755,0.20221 2.15471,0.47674 4.34927,0.61002 4.61673,0.28039 4.17068,-0.0768 6.2376,4.9947 0.73395,1.80086 1.50823,3.21822 1.7206,3.14967 0.21238,-0.0686 1.02112,-1.70229 1.79723,-3.63054 0.77611,-1.92821 1.53077,-3.68854 1.677,-3.91185 0.14626,-0.22327 1.65439,-0.5057 3.35139,-0.62759 4.4498,-0.31961 5.43973,-0.51516 5.31234,-1.04944 -0.0606,-0.25418 -1.49924,-1.60398 -3.19698,-2.99953 -1.69774,-1.39555 -3.08659,-2.72634 -3.08635,-2.9573 2.5e-4,-0.23096 0.39712,-2.05726 0.88195,-4.05839 0.48482,-2.00113 0.88148,-3.78707 0.88148,-3.96875 0,-0.69836 -1.04782,-0.25619 -4.23333,1.78636 -1.81561,1.16417 -3.42745,2.11667 -3.58189,2.11667 -0.59941,0 -6.97625,-4.07596 -6.87854,-4.3966 0.14828,-0.48645 20.22743,-6.65752 20.8654,-6.41269 0.46951,0.18016 0.53114,5.93104 0.53114,49.56058 0,39.26801 -0.0909,49.43218 -0.44457,49.72572 -1.49052,1.23702 -32.4551,2.80162 -46.12209,2.33052 z m 11.46527,-70.90438 c 0.77611,-1.92821 1.53077,-3.68853 1.67701,-3.91184 0.14625,-0.22328 1.65437,-0.50571 3.35139,-0.62759 4.44977,-0.31962 5.43973,-0.51517 5.31235,-1.04945 -0.0606,-0.25417 -1.49925,-1.60397 -3.197,-2.99953 -1.69774,-1.39555 -3.0866,-2.72633 -3.08635,-2.9573 2.6e-4,-0.23096 0.39713,-2.05726 0.88195,-4.05839 0.48482,-2.00113 0.88149,-3.78707 0.88149,-3.96875 0,-0.69836 -1.04784,-0.25618 -4.23334,1.78636 -1.8156,1.16417 -3.42788,2.11667 -3.58285,2.11667 -0.15497,0 -1.86334,-0.96774 -3.79637,-2.15053 -1.93304,-1.18283 -3.66921,-2.05504 -3.85816,-1.93824 -0.20917,0.12926 0.0766,1.82334 0.73045,4.3307 l 1.074,4.11837 -1.54534,1.43584 c -0.84994,0.78969 -2.33909,2.09874 -3.30923,2.90897 -1.20861,1.0094 -1.65081,1.58891 -1.4047,1.84086 0.19755,0.20222 2.15472,0.47675 4.34925,0.61003 4.61675,0.28038 4.17068,-0.0768 6.23762,4.99469 0.73396,1.80086 1.50823,3.21822 1.7206,3.14968 0.21237,-0.0686 1.02112,-1.7023 1.79723,-3.63055 z m -54.68055,35.27097 c -50.50275,-8.78279 -98.65693,-30.4317 -138.64166,-62.32976 -22.43951,-17.90122 -42.27695,-38.79684 -58.80583,-61.94263 -18.9934,-26.5969 -34.11629,-57.19162 -43.61711,-88.24062 -7.27808,-23.78501 -11.49509,-47.13887 -13.12242,-72.67222 -0.75644,-11.86881 -0.42282,-32.3044 0.73718,-45.15555 5.38107,-59.614465 28.46748,-117.19902215 65.69574,-163.865273 23.99198,-30.074343 52.48713,-54.698907 86.1541,-74.451517 6.03352,-3.5399 20.00981,-10.75737 27.01821,-13.95242 23.24199,-10.59576 49.3614,-18.66484 74.47319,-23.00703 4.88456,-0.84461 7.05774,-1.09044 7.32014,-0.82805 0.56801,0.56801 0.50531,16.51033 -0.0678,17.23663 -0.28139,0.3566 -1.52617,0.70893 -3.43958,0.97356 -4.68846,0.64842 -17.93733,3.3408 -24.23551,4.92504 -43.42826,10.9239 -82.08656,30.90353 -116.75036,60.339664 -7.19865,6.113014 -24.01107,22.925439 -30.12409,30.124085 -21.24071,25.012931 -37.26735,51.5992021 -48.91211,81.139345 -10.69357,27.127181 -16.7156,53.652947 -19.23301,84.717356 -0.62124,7.66602 -0.62124,40.66451 0,48.33055 2.51741,31.06441 8.53944,57.59016 19.23301,84.71736 11.64476,29.54013 27.6714,56.12641 48.91211,81.13934 6.11302,7.19865 22.92544,24.01108 30.12409,30.12409 28.50213,24.20373 59.63899,41.97148 94.01573,53.64867 14.74792,5.00959 34.47216,9.88755 46.97014,11.61602 1.91341,0.26466 3.15819,0.61698 3.43958,0.97356 0.32403,0.41067 0.44097,2.72804 0.44097,8.73852 0,6.12525 -0.11075,8.26597 -0.44097,8.52329 -0.29475,0.22973 -2.66362,-0.0429 -7.14375,-0.82201 z m 98.83658,0.68234 c -0.32194,-0.32194 -0.28882,-16.77401 0.0349,-17.27884 0.14255,-0.22235 1.52918,-0.59164 3.0814,-0.8206 4.89473,-0.72203 18.11754,-3.42674 24.05913,-4.92128 43.42825,-10.92391 82.08655,-30.90354 116.75036,-60.33967 7.19864,-6.11301 24.01107,-22.92544 30.12408,-30.12409 21.24071,-25.01293 37.26737,-51.59921 48.91211,-81.13934 9.25022,-23.46568 15.33041,-47.93132 18.07308,-72.72291 1.42219,-12.85519 1.61735,-17.21863 1.61735,-36.15973 0,-21.84368 -0.66157,-31.8411 -3.17871,-48.035489 -8.16952,-52.559562 -30.33677,-100.6681906 -65.42383,-141.986482 -6.11301,-7.198646 -22.92544,-24.011071 -30.12408,-30.124085 -28.50215,-24.203712 -59.63899,-41.971494 -94.01574,-53.648664 -14.60094,-4.95968 -33.51653,-9.65376 -46.79375,-11.61229 -1.55222,-0.22898 -2.93885,-0.59825 -3.0814,-0.82062 -0.14256,-0.22236 -0.26162,-4.17959 -0.26459,-8.79384 -0.005,-7.1896 0.0714,-8.41902 0.5316,-8.59561 0.68901,-0.26441 11.55662,1.62148 19.74773,3.42688 45.52216,10.03357 88.90564,30.71301 125.2361,59.695834 22.43949,17.901242 42.27696,38.796848 58.80583,61.942639 18.99342,26.5969146 34.1163,57.191644 43.6171,88.240624 7.27808,23.785011 11.49508,47.138873 13.12241,72.672223 0.75646,11.86881 0.42284,32.30439 -0.73716,45.15555 -5.38106,59.61447 -28.46748,117.19902 -65.69576,163.86527 -23.99196,30.07434 -52.48712,54.6989 -86.15408,74.45153 -6.03352,3.53988 -20.0098,10.75736 -27.01823,13.95239 -22.77688,10.38377 -48.39133,18.36727 -72.95483,22.73861 -7.18474,1.27861 -7.89054,1.36239 -8.27091,0.98199 z m -99.54214,-29.74703 c -47.65437,-10.11636 -89.89345,-30.93208 -127.40392,-62.78559 -7.19864,-6.113 -24.01107,-22.92544 -30.12408,-30.12408 -21.24072,-25.01293 -37.26736,-51.59921 -48.91212,-81.13934 -12.70675,-32.23415 -19.64071,-67.43594 -19.64071,-99.71042 0,-32.27445 6.93396,-67.476253 19.64071,-99.710404 11.64476,-29.540143 27.6714,-56.126414 48.91212,-81.139345 6.11301,-7.198646 22.92544,-24.011071 30.12408,-30.124085 25.02201,-21.248433 51.59735,-37.266666 81.1659,-48.922576 15.69759,-6.18799 32.94582,-11.26452 49.00442,-14.42308 4.1315,-0.81262 4.93155,-0.88386 5.19807,-0.46283 0.17725,0.27999 0.31737,11.72129 0.32041,26.16219 0.005,22.083043 0.0762,25.664587 0.51268,25.664587 0.9163,0 5.23522,-1.091226 6.16608,-1.557937 0.50125,-0.251312 3.05449,-0.978676 5.67386,-1.616364 2.61938,-0.637692 5.0722,-1.318243 5.45071,-1.512341 0.37852,-0.194098 2.91852,-0.951025 5.64445,-1.682058 8.26972,-2.217759 12.96306,-3.536474 15.18679,-4.267119 1.16416,-0.38251 3.10885,-0.940738 4.32152,-1.240511 2.39538,-0.592134 3.73121,-0.402343 8.73125,1.240511 2.22373,0.730645 6.91707,2.04936 15.1868,4.267119 2.72592,0.731033 5.26592,1.48796 5.64445,1.682058 0.37849,0.194098 2.83132,0.874649 5.4507,1.512341 2.61937,0.637688 5.16318,1.360184 5.65294,1.605544 0.70531,0.353364 6.62312,1.921535 7.25132,1.921535 0.0817,0 0.15095,-11.628437 0.15391,-25.840975 0.004,-14.21253 0.13363,-26.04302 0.29037,-26.28998 0.22433,-0.35344 1.59371,-0.18003 6.4328,0.81461 47.38846,9.74026 90.55019,30.922428 128.26008,62.945276 7.19864,6.113014 24.01108,22.925439 30.12408,30.124085 21.24072,25.012931 37.26738,51.599202 48.91211,81.139345 12.70674,32.234151 19.64073,67.435954 19.64073,99.710404 0,32.27448 -6.93399,67.47627 -19.64073,99.71042 -11.64473,29.54013 -27.67139,56.12641 -48.91211,81.13934 -6.113,7.19864 -22.92544,24.01108 -30.12408,30.12408 -34.60376,29.38516 -73.42907,49.46555 -116.57396,60.29195 -9.67645,2.4281 -17.79291,3.98159 -18.11892,3.46794 -0.15674,-0.24694 -0.2874,-12.07745 -0.29037,-26.28998 -0.004,-14.21254 -0.0722,-25.84097 -0.15391,-25.84097 -0.6282,0 -6.54601,1.56816 -7.25132,1.92154 -0.48976,0.24536 -3.03357,0.96785 -5.65294,1.60553 -2.61938,0.63768 -5.07221,1.31826 -5.4507,1.51236 -0.37853,0.19409 -2.91853,0.95101 -5.64445,1.68204 -8.26973,2.21777 -12.96307,3.53649 -15.1868,4.26713 -1.16416,0.38252 -3.10885,0.94072 -4.32152,1.24051 -2.39538,0.59213 -3.73121,0.40234 -8.73125,-1.24051 -2.22373,-0.73064 -6.91707,-2.04936 -15.18679,-4.26713 -2.72593,-0.73103 -5.26593,-1.48795 -5.64445,-1.68204 -0.37851,-0.1941 -2.83133,-0.87468 -5.45071,-1.51236 -2.61937,-0.63768 -5.17261,-1.36504 -5.67386,-1.61636 -0.93086,-0.46672 -5.24978,-1.55794 -6.16608,-1.55794 -0.43652,0 -0.50728,3.5638 -0.50728,25.54753 0,14.05114 -0.0964,25.79864 -0.21413,26.10556 -0.28914,0.7535 -0.75947,0.70404 -8.07615,-0.84921 z M -665.59627,186.8928 c 0.3543,-0.4269 0.48417,-1.78442 0.48417,-5.06106 0,-5.68991 0.0325,-5.64444 -4.04064,-5.64444 h -3.07231 l 0.0287,-5.06067 c 0.0216,-3.80467 -0.0915,-5.20559 -0.45547,-5.64444 -0.38269,-0.46144 -1.12809,-0.58378 -3.55648,-0.58378 h -3.07231 l 0.0287,-5.06067 c 0.0216,-3.80467 -0.0915,-5.20558 -0.45547,-5.64446 -0.38234,-0.46098 -1.12697,-0.58376 -3.54038,-0.58376 h -3.05621 v -5.64444 -5.64445 h 3.05621 c 2.41341,0 3.15804,-0.12278 3.54038,-0.58376 0.364,-0.43887 0.47704,-1.83978 0.45547,-5.64444 l -0.0287,-5.06069 h 3.07231 c 2.42839,0 3.17378,-0.12234 3.55648,-0.58375 0.364,-0.43888 0.47704,-1.83979 0.45546,-5.64445 l -0.0287,-5.06068 h 3.07231 c 4.07318,0 4.04064,0.0455 4.04064,-5.64445 0,-3.27663 -0.12987,-4.63415 -0.48417,-5.06106 -0.72293,-0.87107 -10.65707,-0.87022 -11.37889,10e-4 -0.36443,0.43985 -0.47605,1.83575 -0.45137,5.64445 l 0.0328,5.06007 h -3.07641 c -2.43369,0 -3.17755,0.12208 -3.56057,0.58437 -0.36443,0.43985 -0.47606,1.83575 -0.45137,5.64444 l 0.0328,5.06008 h -3.07641 c -2.4337,0 -3.17755,0.12208 -3.56057,0.58437 -0.36443,0.43985 -0.47606,1.83574 -0.45137,5.64444 l 0.0328,5.06008 h -3.07641 c -2.43176,0 -3.17786,0.12228 -3.56057,0.58358 -0.6873,0.82842 -0.68691,9.29424 3.5e-4,10.12248 0.38172,0.45994 1.12887,0.58283 3.54368,0.58283 h 3.05998 l -0.0164,5.0608 c -0.0123,3.79025 0.10518,5.20736 0.4678,5.64445 0.38237,0.46094 1.12753,0.58363 3.54414,0.58363 h 3.05998 l -0.0164,5.06081 c -0.0123,3.79025 0.10518,5.20736 0.46779,5.64445 0.38238,0.46094 1.12754,0.58363 3.54415,0.58363 h 3.05998 l -0.0164,5.06081 c -0.0123,3.79025 0.10518,5.20735 0.4678,5.64445 0.72216,0.87051 10.65645,0.87072 11.37889,2.4e-4 z m 85.32878,0.0524 c 0.4231,-0.5098 0.52031,-2.67966 0.47802,-10.66966 -0.0203,-3.84425 -0.0195,-7.89125 0.002,-11.46527 0.01,-1.60073 -0.009,-4.77573 -0.0424,-7.05556 l -0.0602,-4.14514 h 13.70181 c 12.31866,0 13.7507,-0.0589 14.18599,-0.58376 0.364,-0.43887 0.47704,-1.83978 0.45547,-5.64444 l -0.0287,-5.06069 h 2.36676 c 1.67713,0 2.49516,-0.15473 2.80748,-0.53105 0.42269,-0.5093 0.49343,-2.05158 0.49343,-10.75784 0,-8.70625 -0.0707,-10.24853 -0.49343,-10.75783 -0.31232,-0.37632 -1.13035,-0.53105 -2.80748,-0.53105 h -2.36676 l 0.0287,-5.06069 c 0.0216,-3.80466 -0.0915,-5.20557 -0.45547,-5.64444 -0.43969,-0.53016 -2.25779,-0.58376 -19.80053,-0.58376 -17.11296,0 -19.36876,0.0631 -19.77552,0.55321 -0.44135,0.5318 -0.51646,2.23257 -0.45853,10.3829 0.0103,1.45521 0.0165,3.99521 0.0136,5.64444 -0.003,1.64924 -0.003,4.18924 0,5.64445 0.003,1.4552 0.003,3.9952 0,5.64444 -0.003,1.64924 -0.003,4.18924 0,5.64445 0.003,1.4552 0.003,3.9952 0,5.64444 -0.003,1.64924 -0.003,4.18924 0,5.64444 0.003,1.45521 0.003,3.99521 0,5.64445 -0.003,1.64923 -0.003,4.18923 0,5.64444 0.006,2.90333 1.8e-4,7.10177 -0.015,11.46528 -0.03,8.60436 0.0486,10.41643 0.47425,10.9293 0.65156,0.78507 10.64502,0.78945 11.29611,0.005 z m 0.43811,-48.76966 c 0.0331,-2.27982 0.0602,-5.49451 0.0602,-7.14375 0,-1.64923 -0.0271,-4.86392 -0.0602,-7.14375 l -0.0602,-4.14513 h 10.89664 10.89663 l -0.0501,4.14513 c -0.0607,5.02571 -0.0573,8.41958 0.0141,14.11112 l 0.0542,4.32152 h -10.90575 -10.90576 l 0.0602,-4.14514 z m 56.00634,48.76966 c 0.48378,-0.58293 0.61304,-5.86475 0.4381,-17.9016 l -0.0602,-4.14514 h 10.89664 10.89664 l -0.0501,4.14514 c -0.14863,12.30468 -0.0225,17.32798 0.44949,17.89666 0.65156,0.78507 10.64502,0.78945 11.29611,0.005 0.42269,-0.5093 0.49343,-2.05161 0.49343,-10.75785 0,-11.70266 0.0968,-11.28889 -2.64153,-11.28889 h -1.70737 l 0.0602,-4.14514 c 0.0331,-2.27983 0.0591,-5.49451 0.0578,-7.14375 -0.009,-11.24656 -0.0163,-11.28889 -1.89226,-11.28889 h -0.95565 l 0.0287,-5.06068 c 0.0337,-5.93443 -0.089,-6.22821 -2.60081,-6.22821 h -1.6612 l 0.0287,-5.06068 c 0.0315,-5.54421 -0.17668,-6.2282 -1.89526,-6.2282 h -0.95564 l 0.0287,-5.06069 c 0.0216,-3.80466 -0.0915,-5.20557 -0.45547,-5.64444 -0.42453,-0.51188 -1.47268,-0.58376 -8.51165,-0.58376 -7.04254,0 -8.0869,0.0717 -8.51167,0.58437 -0.36443,0.43985 -0.47605,1.83574 -0.45137,5.64444 l 0.0328,5.06008 h -0.95974 c -1.72379,0 -1.93123,0.68172 -1.89528,6.22881 l 0.0328,5.06007 h -1.66529 c -2.51734,0 -2.63931,0.29211 -2.60083,6.22882 l 0.0328,5.06007 h -0.95974 c -1.57935,0 -1.87706,0.74123 -1.88709,4.69836 -0.0167,6.57429 -0.008,9.2002 0.0471,13.55789 l 0.0542,4.32153 h -1.70366 c -2.77224,0 -2.65189,-0.50729 -2.63636,11.1125 0.0125,9.30899 0.0619,10.41597 0.48787,10.9293 0.65155,0.78507 10.64502,0.78945 11.29611,0.005 z m 4.73573,-38.98007 v -5.64445 h 0.93955 c 1.70112,0 1.91056,-0.69414 1.87918,-6.2282 l -0.0287,-5.06069 h 3.74923 3.74924 l -0.0164,5.06081 c -0.0179,5.5241 0.19459,6.22808 1.8796,6.22808 h 0.92764 l 0.0138,5.64445 0.0138,5.64444 h -6.55343 -6.55344 v -5.64444 z m 51.75215,38.92733 c 0.364,-0.43886 0.47704,-1.83977 0.45546,-5.64444 l -0.0287,-5.06067 h 1.6612 c 2.51181,0 2.63449,-0.29379 2.60084,-6.22822 l -0.0287,-5.06067 h 0.95564 c 1.71858,0 1.92672,-0.684 1.89528,-6.2282 l -0.0287,-5.06069 h 3.74923 3.74924 l -0.0164,5.06081 c -0.0179,5.53413 0.19328,6.22808 1.89528,6.22808 h 0.94331 l -0.0164,5.06081 c -0.0192,5.92751 0.10634,6.22808 2.60083,6.22808 h 1.64887 l -0.0164,5.06081 c -0.0122,3.79024 0.10519,5.20735 0.4678,5.64444 0.72216,0.87052 10.65645,0.87073 11.37889,2.5e-4 0.3543,-0.4269 0.48417,-1.78442 0.48417,-5.06106 0,-5.28944 -0.16538,-5.64444 -2.62953,-5.64444 h -1.6612 l 0.0287,-5.06067 c 0.0351,-6.18381 0.0115,-6.22822 -3.30639,-6.22822 h -2.36675 l 0.0287,-5.06067 c 0.0336,-5.92729 -0.0912,-6.22822 -2.5847,-6.22822 h -1.6451 v -5.64444 -5.64445 h 1.6451 c 2.49346,0 2.61834,-0.30093 2.58473,-6.2282 l -0.0287,-5.06069 h 2.36676 c 3.31788,0 3.34145,-0.0444 3.30639,-6.2282 l -0.0287,-5.06068 h 1.6612 c 2.46415,0 2.62953,-0.35499 2.62953,-5.64445 0,-3.27663 -0.12987,-4.63415 -0.48417,-5.06106 -0.72293,-0.87107 -10.65707,-0.87022 -11.37889,10e-4 -0.36443,0.43985 -0.47605,1.83575 -0.45137,5.64445 l 0.0328,5.06007 h -1.6653 c -2.51734,0 -2.6393,0.2921 -2.60083,6.22881 l 0.0328,5.06008 h -0.95974 c -1.7238,0 -1.93123,0.68172 -1.89528,6.22881 l 0.0328,5.06008 h -3.76566 -3.76566 l 0.0287,-5.06069 c 0.0314,-5.54428 -0.17672,-6.22828 -1.8953,-6.22828 h -0.95564 l 0.0287,-5.06068 c 0.0337,-5.93442 -0.089,-6.2282 -2.60082,-6.2282 h -1.6612 l 0.0287,-5.06069 c 0.0216,-3.80466 -0.0915,-5.20557 -0.45547,-5.64444 -0.72223,-0.87079 -10.65646,-0.87095 -11.37889,-1.8e-4 -0.35436,0.42712 -0.48404,1.78421 -0.4837,5.06162 7e-4,5.28401 0.16732,5.64369 2.61673,5.64369 h 1.64887 l -0.0164,5.0608 c -0.02,6.17931 0.006,6.22808 3.30639,6.22808 h 2.35443 l -0.0164,5.06081 c -0.0191,5.92049 0.10854,6.22808 2.58518,6.22808 h 1.63319 l 0.0138,5.64445 0.0138,5.64444 h -1.64694 c -2.49644,0 -2.62092,0.30023 -2.58249,6.22882 l 0.0328,5.06007 h -2.37085 c -3.32345,0 -3.34648,0.0434 -3.30639,6.22882 l 0.0328,5.06007 h -1.6653 c -2.4689,0 -2.63371,0.35334 -2.63316,5.64522 3.4e-4,3.27424 0.1305,4.63469 0.48417,5.06084 0.7221,0.87006 10.65669,0.86925 11.37842,0 z m 56.40099,0.0527 c 0.42312,-0.5098 0.52031,-2.67966 0.47805,-10.66966 -0.008,-1.60073 -0.0155,-4.18041 -0.0155,-5.73264 0,-1.55222 0,-4.09222 0,-5.64444 0,-1.55222 0,-4.09222 0,-5.64444 0,-1.55223 0,-4.09223 0,-5.64445 0,-1.55222 0,-4.09222 0,-5.64444 0,-1.55223 0.008,-4.13191 0.018,-5.73264 0.01,-1.60073 -0.009,-4.77573 -0.0424,-7.05556 l -0.0602,-4.14514 h 1.72441 1.72445 l -0.0501,4.14514 c -0.0498,4.12731 -0.0523,6.3726 -0.0148,13.57513 0.0215,4.16635 0.29171,4.85751 1.89826,4.85751 h 0.98901 l -0.0501,4.14514 c -0.14863,12.30468 -0.0226,17.32799 0.44951,17.89666 0.64233,0.774 7.83212,0.7782 8.47386,0.005 0.4838,-0.58293 0.61306,-5.86475 0.43811,-17.9016 l -0.0602,-4.14514 h 1.00182 c 1.92824,0 1.92916,-0.005 1.93844,-11.28889 0,-1.64923 -0.0247,-4.86392 -0.0578,-7.14375 l -0.0602,-4.14514 h 1.72441 1.72445 l -0.0501,4.14514 c -0.0275,2.27983 -0.0398,5.33577 -0.0272,6.79098 0.0123,1.4552 0.0205,3.9952 0.0176,5.64444 -0.004,1.64924 -0.004,4.18924 0,5.64444 0.004,1.45521 0.004,3.99521 0,5.64445 -0.004,1.64923 -0.004,4.18923 0,5.64444 0.006,2.90333 2.1e-4,7.10177 -0.0152,11.46528 -0.03,8.60436 0.0486,10.41643 0.47428,10.9293 0.65154,0.78507 10.645,0.78945 11.29608,0.005 0.42312,-0.5098 0.52031,-2.67966 0.47805,-10.66966 -0.008,-1.60073 -0.0155,-4.18041 -0.0155,-5.73264 0,-1.55222 0,-4.09222 0,-5.64444 0,-1.55222 0,-4.09222 0,-5.64444 0,-1.55223 0,-4.09223 0,-5.64445 0,-1.55222 0,-4.09222 0,-5.64444 0,-1.55223 0,-4.09222 0,-5.64445 0,-1.55222 0,-4.09222 0,-5.64444 0,-1.55222 0,-4.09222 0,-5.64445 0,-1.55222 0,-4.09222 0,-5.64444 0,-1.55222 0.007,-4.13191 0.0155,-5.73264 0.0423,-7.99 -0.0549,-10.15984 -0.47805,-10.66964 -0.36403,-0.43834 -1.59607,-0.53105 -7.05735,-0.53105 -5.72897,0 -6.68133,0.0784 -7.10057,0.58437 -0.36442,0.43985 -0.47604,1.83574 -0.45135,5.64444 l 0.0328,5.06008 h -1.66528 c -2.51736,0 -2.63931,0.2921 -2.60082,6.22881 0.0296,4.56361 -0.0268,5.06007 -0.57418,5.06007 -1.34264,0 -1.57674,0.94541 -1.54249,6.22882 l 0.0328,5.06007 h -1.64899 -1.64899 l 0.0286,-5.06068 c 0.03,-5.27923 -0.20503,-6.22821 -1.54245,-6.22821 -0.54193,0 -0.59996,-0.51133 -0.57414,-5.06068 0.0336,-5.93442 -0.089,-6.2282 -2.60086,-6.2282 h -1.66119 l 0.0286,-5.06069 c 0.0215,-3.80466 -0.0915,-5.20557 -0.45547,-5.64444 -0.70753,-0.85306 -13.47064,-0.88055 -14.17608,-0.0305 -0.44136,0.53179 -0.51647,2.23256 -0.45854,10.38289 0.0103,1.45521 0.0165,3.99521 0.0136,5.64445 -0.003,1.64923 -0.003,4.18923 0,5.64444 0.003,1.45521 0.003,3.99521 0,5.64444 -0.003,1.64924 -0.003,4.18924 0,5.64445 0.003,1.45521 0.003,3.99521 0,5.64444 -0.003,1.64924 -0.003,4.18924 0,5.64445 0.003,1.4552 0.003,3.9952 0,5.64444 -0.003,1.64924 -0.003,4.18924 0,5.64445 0.006,2.90332 1.9e-4,7.10176 -0.015,11.46527 -0.03,8.60436 0.0486,10.41644 0.47426,10.9293 0.65155,0.78508 10.64501,0.78945 11.2961,0.005 z m 79.06568,-0.0527 c 0.364,-0.43886 0.47703,-1.83977 0.45547,-5.64444 l -0.0286,-5.06067 h 2.36675 c 3.31787,0 3.34147,-0.0444 3.30641,-6.22822 l -0.0286,-5.06067 h 2.36675 c 1.67714,0 2.49517,-0.15473 2.80748,-0.53104 0.42312,-0.5098 0.52031,-2.67966 0.47805,-10.66965 -0.008,-1.60073 -0.0155,-4.18042 -0.0155,-5.73264 0,-1.55223 0.007,-4.13191 0.0155,-5.73264 0.0423,-7.99001 -0.0549,-10.15985 -0.47805,-10.66965 -0.3126,-0.37631 -1.13062,-0.53105 -2.80776,-0.53105 h -2.36675 l 0.0286,-5.06068 c 0.0352,-6.1838 0.0116,-6.2282 -3.30627,-6.2282 h -2.36675 l 0.0286,-5.06069 c 0.0215,-3.80466 -0.0915,-5.20557 -0.45547,-5.64444 -0.43773,-0.52794 -2.06142,-0.58376 -16.97821,-0.58376 -14.54979,0 -16.54827,0.0652 -16.9533,0.55321 -0.44136,0.5318 -0.51646,2.23257 -0.45854,10.3829 0.0102,1.45521 0.0166,3.99521 0.0138,5.64444 -0.004,1.64924 -0.004,4.18924 0,5.64445 0.004,1.4552 0.004,3.9952 0,5.64444 -0.004,1.64924 -0.004,4.18924 0,5.64445 0.004,1.4552 0.004,3.9952 0,5.64444 -0.004,1.64924 -0.004,4.18924 0,5.64444 0.004,1.45521 0.004,3.99521 0,5.64445 -0.004,1.64923 -0.004,4.18923 0,5.64444 0.006,2.90333 2.1e-4,7.10177 -0.0152,11.46528 -0.03,8.60436 0.0486,10.41643 0.47428,10.9293 0.38629,0.46546 2.61457,0.53598 16.93897,0.53598 14.91679,0 16.54048,-0.0558 16.97835,-0.58378 z m -22.18312,-14.85025 c 0.0332,-2.27983 0.0522,-5.45483 0.0424,-7.05556 -0.01,-1.60072 -0.018,-4.18041 -0.018,-5.73263 0,-1.55223 0,-4.09223 0,-5.64445 0,-1.55222 0,-4.09222 0,-5.64444 0,-1.55223 0,-4.09222 0,-5.64445 0,-1.55222 0,-4.09222 0,-5.64444 0,-1.55222 0.008,-4.13191 0.018,-5.73264 0.01,-1.60073 -0.009,-4.77573 -0.0424,-7.05556 l -0.0603,-4.14513 h 8.02877 8.02872 l -0.0162,5.0608 c -0.0201,6.19219 0,6.22808 3.35206,6.22808 h 2.40012 l -0.0501,4.14514 c -0.0275,2.27983 -0.0398,5.33577 -0.0272,6.79098 0.0229,2.67043 0.0229,6.28778 -2.1e-4,11.46527 -0.007,1.55222 0.0116,4.76691 0.0416,7.14375 l 0.0542,4.32153 h -2.40923 c -3.3674,0 -3.38493,0.0328 -3.34475,6.22882 l 0.0328,5.06007 h -8.04517 -8.04517 l 0.0602,-4.14514 z m 84.27201,14.85025 c 0.36399,-0.43886 0.47702,-1.83977 0.45547,-5.64444 l -0.0286,-5.06067 h 2.36676 c 1.67714,0 2.49516,-0.15473 2.80747,-0.53104 0.4227,-0.5093 0.49343,-2.05161 0.49343,-10.75785 0,-8.70626 -0.0707,-10.24853 -0.49343,-10.75784 -0.31189,-0.37565 -1.12871,-0.53105 -2.79153,-0.53105 h -2.35063 v -5.64444 -5.64445 h 2.35063 c 1.66282,0 2.47964,-0.15539 2.79139,-0.53105 0.4227,-0.5093 0.49343,-2.05158 0.49343,-10.75784 0,-8.70625 -0.0707,-10.24853 -0.49343,-10.75783 -0.31231,-0.37632 -1.13033,-0.53105 -2.80748,-0.53105 h -2.36675 l 0.0286,-5.06069 c 0.0215,-3.80466 -0.0915,-5.20557 -0.45547,-5.64444 -0.4396,-0.53016 -2.25767,-0.58376 -19.80043,-0.58376 -17.11297,0 -19.36877,0.0631 -19.77552,0.55321 -0.44136,0.5318 -0.51647,2.23257 -0.45854,10.3829 0.0102,1.45521 0.0166,3.99521 0.0138,5.64444 -0.004,1.64924 -0.004,4.18924 0,5.64445 0.004,1.4552 0.004,3.9952 0,5.64444 -0.004,1.64924 -0.004,4.18924 0,5.64445 0.004,1.4552 0.004,3.9952 0,5.64444 -0.004,1.64924 -0.004,4.18924 0,5.64444 0.004,1.45521 0.004,3.99521 0,5.64445 -0.004,1.64923 -0.004,4.18923 0,5.64444 0.006,2.90333 2.2e-4,7.10177 -0.0152,11.46528 -0.03,8.60436 0.0486,10.41643 0.47427,10.9293 0.38798,0.4675 2.91222,0.53598 19.7612,0.53598 17.54276,0 19.36083,-0.0536 19.80057,-0.58378 z m -27.82757,-14.85025 c 0.0332,-2.27983 0.0602,-5.49451 0.0602,-7.14375 0,-1.64924 -0.0272,-4.86392 -0.0602,-7.14375 l -0.0602,-4.14514 h 10.89663 10.89667 l -0.0501,4.14514 c -0.0607,5.02571 -0.0573,8.41957 0.0141,14.11111 l 0.0542,4.32153 h -10.90577 -10.90577 z m 0,-33.86667 c 0.0332,-2.27982 0.0602,-5.49451 0.0602,-7.14375 0,-1.64923 -0.0272,-4.86392 -0.0602,-7.14375 l -0.0602,-4.14513 h 10.89663 10.89667 l -0.0501,4.14513 c -0.0607,5.02571 -0.0573,8.41958 0.0141,14.11112 l 0.0542,4.32152 h -10.90577 -10.90577 z m 118.84423,48.71692 c 0.364,-0.43886 0.47703,-1.83977 0.45547,-5.64444 l -0.0286,-5.06067 h 3.0723 c 2.42839,0 3.17381,-0.12234 3.5565,-0.58378 0.36399,-0.43885 0.47702,-1.83977 0.45547,-5.64444 l -0.0286,-5.06067 h 3.07231 c 2.42838,0 3.1738,-0.12234 3.55649,-0.58378 0.364,-0.43885 0.47703,-1.83977 0.45548,-5.64442 l -0.029,-5.06069 h 3.0723 c 4.07318,0 4.04065,0.0455 4.04065,-5.64444 0,-5.68991 0.0325,-5.64445 -4.04065,-5.64445 h -3.0723 l 0.0286,-5.06068 c 0.0215,-3.80466 -0.0915,-5.20557 -0.45547,-5.64445 -0.38255,-0.46141 -1.12797,-0.58376 -3.55635,-0.58376 h -3.07231 l 0.0286,-5.06068 c 0.0215,-3.80466 -0.0915,-5.20557 -0.45547,-5.64445 -0.38256,-0.46141 -1.12798,-0.58375 -3.55636,-0.58375 h -3.0723 l 0.0286,-5.06069 c 0.0215,-3.80466 -0.0915,-5.20557 -0.45547,-5.64444 -0.72224,-0.87079 -10.65646,-0.87095 -11.37892,-1.8e-4 -0.68728,0.82842 -0.68689,9.29424 0,10.12248 0.38171,0.45994 1.12886,0.58283 3.54366,0.58283 h 3.05999 l -0.0162,5.0608 c -0.0123,3.79025 0.1052,5.20734 0.46779,5.64445 0.38237,0.46092 1.12754,0.58363 3.54414,0.58363 h 3.06 l -0.0162,5.06081 c -0.0123,3.79025 0.1052,5.20734 0.46778,5.64445 0.38203,0.4605 1.12646,0.58363 3.52849,0.58363 h 3.04429 l 0.0138,5.64445 0.0138,5.64444 h -3.05806 c -2.41663,0 -3.15961,0.12257 -3.54224,0.58437 -0.36442,0.43985 -0.47604,1.83575 -0.45134,5.64445 l 0.0328,5.06007 h -3.0764 c -2.43371,0 -3.17754,0.1221 -3.56059,0.58438 -0.36442,0.43984 -0.47604,1.83575 -0.45134,5.64444 l 0.0328,5.06007 h -3.0764 c -2.43177,0 -3.17786,0.12227 -3.56059,0.58356 -0.68728,0.82843 -0.68689,9.29425 0,10.1225 0.72207,0.87006 10.65668,0.86925 11.37843,0 z M -464.32276,-91.806212 c -0.35956,-0.359565 -0.26919,-19.978718 0.0947,-20.553698 0.25463,-0.40237 0.80559,-0.10579 2.72863,1.4688 1.32526,1.08514 2.78314,2.37157 3.23974,2.85874 l 0.83019,0.88577 -1.06441,4.08157 c -0.64821,2.48564 -0.93007,4.164584 -0.72084,4.293891 0.18895,0.116777 1.92512,-0.75542 3.85816,-1.938221 1.93303,-1.18281 3.6494,-2.15055 3.81415,-2.15055 0.16475,0 1.50412,0.78635 2.97637,1.74744 1.47225,0.9611 3.15949,1.997048 3.74943,2.302116 1.34929,0.697745 1.35056,0.670437 0.19112,-4.115276 -0.48482,-2.00115 -0.88169,-3.82742 -0.88195,-4.05839 -2.5e-4,-0.23096 1.38861,-1.56175 3.08635,-2.95731 1.69775,-1.39556 3.13639,-2.74535 3.197,-2.99953 0.12738,-0.53426 -0.86258,-0.72982 -5.31235,-1.04944 -1.69702,-0.12189 -3.20514,-0.40431 -3.35139,-0.62761 -0.14624,-0.22329 -0.9009,-1.98362 -1.67701,-3.91184 -0.77611,-1.92822 -1.58486,-3.56195 -1.79723,-3.63051 -0.21237,-0.0686 -0.98664,1.34878 -1.7206,3.14965 -2.01183,4.93627 -1.93832,4.85665 -4.51599,4.89157 -1.2082,0.0164 -3.1201,0.14497 -4.24866,0.28576 -1.754,0.21882 -2.09975,0.16664 -2.38125,-0.35936 -0.39382,-0.73585 -0.44802,-76.12895 -0.0552,-76.74657 0.30009,-0.47179 4.03818,-0.90996 14.8953,-1.746 10.395,-0.80046 32.64389,-0.80046 43.03889,0 10.45041,0.80472 14.55572,1.26788 15.07765,1.70106 0.35369,0.29355 0.44457,10.4577 0.44457,49.72573 0,43.629523 -0.0616,49.380411 -0.53114,49.560585 -0.63797,0.244803 -20.71712,-5.926261 -20.8654,-6.412696 -0.0977,-0.32065 6.27913,-4.396609 6.87854,-4.396609 0.15444,0 1.76628,0.9525 3.58189,2.11667 3.18551,2.042548 4.23333,2.484709 4.23333,1.786364 0,-0.18167 -0.39666,-1.967604 -0.88148,-3.968754 -0.48483,-2.00114 -0.8817,-3.82742 -0.88195,-4.05838 -2.4e-4,-0.23097 1.38861,-1.56175 3.08635,-2.95731 1.69774,-1.39556 3.13641,-2.74535 3.19698,-2.99954 0.12739,-0.53425 -0.86254,-0.72982 -5.31234,-1.04943 -1.697,-0.12189 -3.20513,-0.40432 -3.35139,-0.62761 -0.14623,-0.22329 -0.90089,-1.98362 -1.677,-3.91184 -0.77611,-1.92822 -1.58485,-3.56195 -1.79723,-3.63051 -0.21237,-0.0686 -0.98665,1.34878 -1.7206,3.14964 -2.06692,5.0715 -1.62087,4.71431 -6.2376,4.99471 -2.19456,0.13329 -4.15172,0.4078 -4.34927,0.61003 -0.24612,0.25193 0.19608,0.83143 1.4047,1.84085 0.97014,0.81024 2.45893,2.11895 3.30842,2.90823 l 1.54457,1.43507 -0.98125,3.8566 c -0.53965,2.12113 -1.15535,4.042255 -1.36815,4.269165 -0.29268,0.312075 -2.01956,-0.09607 -7.0897,-1.675645 -3.68653,-1.14852 -6.95437,-2.08824 -7.26188,-2.08826 -0.3075,-3e-5 -2.29188,0.54581 -4.40972,1.21298 -2.11784,0.66716 -5.67625,1.770655 -7.90757,2.452204 -2.23132,0.681549 -8.40184,2.59631 -13.71227,4.255029 -10.23683,3.197486 -10.03214,3.142728 -10.39421,2.780665 z m 32.96599,-12.999728 c 1.72007,-1.06399 3.25947,-1.93453 3.4209,-1.93453 0.16143,0 1.77899,0.9525 3.59459,2.11667 3.1855,2.04254 4.23334,2.48471 4.23334,1.78636 0,-0.18167 -0.39667,-1.96761 -0.88149,-3.96875 -0.48482,-2.00114 -0.88169,-3.82742 -0.88195,-4.05838 -2.5e-4,-0.23097 1.38861,-1.56176 3.08635,-2.95731 1.69775,-1.39556 3.13639,-2.74535 3.197,-2.99954 0.12738,-0.53426 -0.86258,-0.72982 -5.31235,-1.04944 -1.69702,-0.12189 -3.20514,-0.40431 -3.35139,-0.6276 -0.14624,-0.2233 -0.9009,-1.98362 -1.67701,-3.91184 -0.77611,-1.92823 -1.58486,-3.56196 -1.79723,-3.63052 -0.21237,-0.0686 -0.98664,1.34878 -1.7206,3.14965 -2.06694,5.07149 -1.62087,4.71431 -6.23762,4.99471 -2.19453,0.13329 -4.1517,0.4078 -4.34925,0.61002 -0.24611,0.25194 0.19609,0.83144 1.4047,1.84086 0.97014,0.81024 2.45929,2.11928 3.30923,2.90898 l 1.54534,1.43582 -1.06855,4.09746 c -0.5877,2.2536 -0.97389,4.1921 -0.85821,4.30779 0.309,0.30899 0.88644,0.0285 4.3442,-2.11041 z"
         id="path130"
         inkscape:connector-curvature="0" />
    </g>
    <path
       transform="scale(0.26458333)"
       inkscape:connector-curvature="0"
       id="path20"
       d=""
       style="fill:#ffffff;stroke-width:2.85714" />
    <path
       transform="scale(0.26458333)"
       inkscape:connector-curvature="0"
       id="path22"
       d=""
       style="fill:#ffffff;stroke-width:2.85714" />
    <path
       transform="scale(0.26458333)"
       inkscape:connector-curvature="0"
       id="path24"
       d=""
       style="fill:#ffffff;stroke-width:2.85714" />
    <path
       transform="scale(0.26458333)"
       inkscape:connector-curvature="0"
       id="path60"
       d=""
       style="fill:#ffffff;stroke-width:0.990099" />
    <path
       transform="scale(0.26458333)"
       inkscape:connector-curvature="0"
       id="path62"
       d=""
       style="fill:#ffffff;stroke-width:0.990099" />
    <path
       transform="scale(0.26458333)"
       inkscape:connector-curvature="0"
       id="path64"
       d=""
       style="fill:#ffffff;stroke-width:0.990099" />
    <path
       transform="scale(0.26458333)"
       inkscape:connector-curvature="0"
       id="path66"
       d=""
       style="fill:#ffffff;stroke-width:0.990099" />
    <path
       transform="scale(0.26458333)"
       inkscape:connector-curvature="0"
       id="path74"
       d=""
       style="fill:#ffffff;stroke-width:0.990099" />
    <path
       transform="scale(0.26458333)"
       inkscape:connector-curvature="0"
       id="path76"
       d=""
       style="fill:#ffffff;stroke-width:0.990099" />
    <path
       transform="scale(0.26458333)"
       inkscape:connector-curvature="0"
       id="path78"
       d=""
       style="fill:#ffffff;stroke-width:0.990099" />
    <path
       transform="scale(0.26458333)"
       inkscape:connector-curvature="0"
       id="path80"
       d=""
       style="fill:#ffffff;stroke-width:0.990099" />
  </g>
</svg>
